HIERARCHY
ROOT Hips
{
  OFFSET -31.5692 30.0904 122.763
  CHANNELS 6 Xposition Yposition Zposition Zrotation Xrotation Yrotation
  JOINT LeftUpLeg
  {
    OFFSET 8.64259 1.95398 -2.38835
    CHANNELS 3 Zrotation Xrotation Yrotation
    JOINT LeftLeg
    {
      OFFSET 43.7702 0 0
      CHANNELS 3 Zrotation Xrotation Yrotation
      JOINT LeftFoot
      {
        OFFSET 40.6238 0 0
        CHANNELS 3 Zrotation Xrotation Yrotation
        JOINT LeftToeBase
        {
          OFFSET 12.7242 0 0
          CHANNELS 3 Zrotation Xrotation Yrotation
          End Site
          {
            OFFSET 0 0 0
          }
        }
      }
    }
  }
  JOINT RightUpLeg
  {
    OFFSET -8.2249 1.95398 -2.59336
    CHANNELS 3 Zrotation Xrotation Yrotation
    JOINT RightLeg
    {
      OFFSET 43.5653 0 0
      CHANNELS 3 Zrotation Xrotation Yrotation
      JOINT RightFoot
      {
        OFFSET 40.6238 0 0
        CHANNELS 3 Zrotation Xrotation Yrotation
        JOINT RightToeBase
        {
          OFFSET 12.7242 0 0
          CHANNELS 3 Zrotation Xrotation Yrotation
          End Site
          {
            OFFSET 0 0 0
          }
        }
      }
    }
  }
  JOINT Spine
  {
    OFFSET 0.165834 0.87714 6.61349
    CHANNELS 3 Zrotation Xrotation Yrotation
    JOINT Spine1
    {
      OFFSET 7.38963 1.71661e-005 0
      CHANNELS 3 Zrotation Xrotation Yrotation
      JOINT Spine2
      {
        OFFSET 11.9445 1.14441e-005 0
        CHANNELS 3 Zrotation Xrotation Yrotation
        JOINT Spine3
        {
          OFFSET 14.7254 4.19617e-005 0
          CHANNELS 3 Zrotation Xrotation Yrotation
          JOINT Spine4
          {
            OFFSET 10.9679 0 0
            CHANNELS 3 Zrotation Xrotation Yrotation
            JOINT RightShoulder
            {
              OFFSET 2.46616 -1.6653 3.69651
              CHANNELS 3 Zrotation Xrotation Yrotation
              JOINT RightArm
              {
                OFFSET 13.0012 0 0
                CHANNELS 3 Zrotation Xrotation Yrotation
                JOINT RightForeArm
                {
                  OFFSET 28.7848 1.62311e-005 0
                  CHANNELS 3 Zrotation Xrotation Yrotation
                  JOINT RightHand
                  {
                    OFFSET 26.5688 1.62095e-005 0
                    CHANNELS 3 Zrotation Xrotation Yrotation
                    End Site
                    {
                      OFFSET 0 0 0
                    }
                  }
                }
              }
            }
            JOINT LeftShoulder
            {
              OFFSET 2.38034 -1.29275 -3.7523
              CHANNELS 3 Zrotation Xrotation Yrotation
              JOINT LeftArm
              {
                OFFSET 16.3182 6.07031e-005 0
                CHANNELS 3 Zrotation Xrotation Yrotation
                JOINT LeftForeArm
                {
                  OFFSET 27.0901 0 0
                  CHANNELS 3 Zrotation Xrotation Yrotation
                  JOINT LeftHand
                  {
                    OFFSET 24.5451 1.51738e-005 0
                    CHANNELS 3 Zrotation Xrotation Yrotation
                    End Site
                    {
                      OFFSET 0 0 0
                    }
                  }
                }
              }
            }
            JOINT Neck
            {
              OFFSET 5.0226 -0.0266342 0
              CHANNELS 3 Zrotation Xrotation Yrotation
              JOINT Head
              {
                OFFSET 6.69364 2.86102e-005 0
                CHANNELS 3 Zrotation Xrotation Yrotation
                End Site
                {
                  OFFSET 0 0 0
                }
              }
            }
          }
        }
      }
    }
  }
}
MOTION
Frames:	12
Frame Time:	0.0416667
44.3957 103.081 -274.781 -161.171 -84.775 -162.294 -174.581 -4.71453 87.503 -8.49099 5.83989 0.630402 68.2907 5.10878 -1.4502 20.294 -7.97872 8.65452 173.09 -3.35906 90.6246 -10.2676 -6.67383 -0.0734943 66.4135 -3.53457 0.00650391 25.4234 1.46262 0.472738 0.192112 7.5319 -90.0801 11.8104 0.344389 -0.196405 0.139506 0.335418 -0.211371 -22.396 0.387499 -0.0838172 -2.38334 0.387495 -0.0838206 89.756 -30.8034 -106.933 37.885 -7.81822 -5.58225 4.62811 -36.4532 -15.8938 -24.9537 -0.394137 -9.88639 -88.3233 -52.8695 81.7599 -21.6166 13.499 -13.5847 -5.57419 14.4308 -0.00580307 8.35373 -1.54578 -23.0559 6.53265 -2.48741 -1.13293 -7.44094 -2.20806 -0.437982 
44.2864 103.078 -274.776 -161.49 -84.9329 -162.541 -174.644 -3.61798 87.6402 -10.3377 4.60039 0.867782 69.7671 5.37191 -2.2529 16.5162 -8.31461 4.71798 173.415 -3.12507 90.8859 -10.4349 -6.31298 -0.214211 65.9932 -3.44014 0.626597 25.9595 1.22282 0.428357 0.194651 7.52348 -90.0563 11.8272 0.360654 -0.150688 0.156287 0.353667 -0.166417 -22.3793 0.389267 -0.0353269 -2.3666 0.389268 -0.0353309 89.2625 -31.7515 -107.529 37.1482 -8.1088 -5.65362 5.24821 -36.8023 -15.381 -25.1454 -0.49807 -9.35575 -87.9903 -52.5799 82.194 -21.6348 13.4539 -13.5583 -5.77227 14.6587 -0.00580906 7.45779 -1.36465 -22.3233 6.04653 -2.41307 -1.86841 -6.51258 -2.00431 -0.376796 
44.1447 103.079 -274.665 -158.487 -84.974 -159.373 -174.635 -3.50114 87.8297 -10.3943 4.14449 0.992932 70.0678 5.46816 -2.4624 15.596 -8.39125 3.83613 173.753 -3.02987 91.265 -10.5739 -5.89916 -0.358854 66.3223 -3.69459 0.419703 25.9939 1.24777 0.2521 0.242126 7.51726 -90.0833 11.8398 0.44239 -0.213138 0.16894 0.432583 -0.232407 -22.3668 0.485988 -0.0703264 -2.35415 0.48599 -0.0703283 89.218 -31.4246 -107.74 37.4716 -7.80801 -6.1744 6.43064 -36.1927 -13.3868 -25.1553 -0.384381 -9.8548 -88.0113 -52.2318 82.1033 -22.209 13.113 -13.4537 -5.7435 14.1385 -0.00579554 2.76798 -0.0464688 -16.2446 6.1081 -2.44092 -1.74859 -6.65539 -2.05078 -0.450027 
44.044 103.063 -274.427 -158.776 -85.2394 -159.927 -174.79 -3.72127 87.5954 -9.75775 4.20541 1.01695 69.9361 5.55655 -2.38238 15.6748 -8.3584 3.86099 173.732 -2.80127 91.1414 -10.9183 -5.83147 -0.44096 66.6247 -3.84965 0.329394 25.8474 1.29395 0.347962 0.234616 7.47742 -90.0874 11.9195 0.42539 -0.220152 0.248559 0.415291 -0.238669 -22.2871 0.471881 -0.0821215 -2.27447 0.471892 -0.0821215 89.5298 -31.2204 -107.215 37.5864 -7.81319 -6.17145 6.15319 -36.5302 -13.7636 -24.8548 -0.380676 -9.99901 -88.1804 -52.7999 81.9556 -22.0159 12.9534 -13.0624 -5.34911 13.8827 -0.00578908 2.87594 -0.144959 -17.1874 6.12533 -2.34834 -0.783774 -6.90562 -2.12018 -1.31573 
43.7848 103.039 -274.09 -161.516 -85.3572 -162.664 -174.571 -3.90232 87.8614 -9.75072 4.68352 0.92095 69.9313 5.60146 -2.24141 15.7868 -8.00782 3.288 173.769 -2.98758 91.2997 -10.995 -5.52027 -0.384268 66.8859 -3.9923 0.461267 25.9177 1.36242 -0.0847848 0.209274 7.50673 -90.0421 11.8607 0.396383 -0.126331 0.189821 0.390438 -0.143658 -22.3458 0.416023 -0.00135788 -2.33318 0.416019 -0.00135998 89.0428 -31.6116 -108.006 37.2259 -8.45259 -6.44944 7.43208 -35.662 -12.7528 -26.6135 -0.28022 -10.0891 -88.0818 -51.983 81.9562 -22.6801 12.5426 -13.0441 -5.2644 13.5873 -0.00578179 3.15846 -0.190013 -17.0632 6.04072 -2.44161 -2.13028 -6.37914 -1.98909 -0.124154 
43.3711 103.001 -273.704 -162.072 -85.5064 -163.344 -174.546 -3.98264 88.0212 -9.8357 4.52815 1.00252 70.2369 5.76549 -2.87217 15.9772 -7.97457 3.43236 173.722 -3.13612 91.4 -11.0045 -5.47357 -0.270594 67.1473 -4.17177 0.210849 26.0353 1.27815 0.0379062 0.239426 7.49424 -90.0718 11.8858 0.442345 -0.190554 0.214957 0.43353 -0.209851 -22.3208 0.479162 -0.0487945 -2.30814 0.479162 -0.0488042 89.8069 -31.1255 -106.712 37.7229 -8.11828 -6.62686 6.84444 -36.0468 -13.0024 -24.6925 -0.249409 -10.6538 -88.0489 -52.9721 82.1761 -21.7978 12.197 -13.2056 -5.3682 15.1017 -0.00582101 2.82494 -0.142031 -17.9251 6.08743 -2.46395 -0.82573 -6.68543 -2.23816 -0.95621 
42.7685 102.929 -273.172 -160.513 -85.5759 -161.925 -173.894 -4.27753 88.6286 -9.71626 5.13418 0.456672 70.3713 6.25239 -2.64838 16.828 -8.04109 4.53877 173.879 -3.08701 91.651 -11.7254 -5.05705 -0.351472 67.842 -4.41463 0.418739 25.5693 1.42585 0.341027 0.255039 7.51275 -90.0541 11.8487 0.481749 -0.159515 0.177853 0.474262 -0.18057 -22.358 0.50741 -0.00734795 -2.34535 0.507419 -0.00734873 89.5067 -30.9183 -107.376 37.4728 -8.47297 -6.55118 7.00901 -35.2737 -13.267 -25.6144 -0.429753 -9.34 -87.8161 -53.4613 82.5968 -21.3124 12.0535 -12.855 -5.26139 12.7961 -0.00576311 2.36849 -0.192484 -18.4271 5.91203 -2.14422 0.265288 -6.67084 -2.10881 -1.829 
41.9523 102.783 -272.262 -165.027 -85.3465 -166.798 -173.312 -4.83826 89.1339 -10.4101 5.88372 0.0921611 70.9874 7.02596 -2.67896 17.261 -7.9064 4.75076 173.788 -3.87272 91.7617 -12.0983 -4.74398 -0.338842 68.6811 -4.7823 0.287637 25.8355 1.32378 0.24447 0.251545 7.57114 -89.9628 11.7317 0.51782 0.019839 0.0609196 0.518184 -0.00298004 -22.475 0.487908 0.174549 -2.46237 0.487915 0.174552 89.5058 -30.9953 -107.347 37.4386 -8.23558 -6.36199 6.56114 -36.5218 -13.5667 -25.3582 -0.320815 -10.2651 -87.8289 -53.5778 82.5976 -20.7899 11.6209 -11.4361 -5.05328 9.75831 -0.00570248 2.6724 -0.374722 -18.5706 5.12558 -1.97668 0.811828 -6.02139 -2.04458 -2.35224 
41.0282 102.434 -271.485 -162.585 -84.9397 -165.021 -173.031 -4.79835 89.2697 -12.3793 5.03553 -0.142364 72.2685 8.25483 -3.55744 19.9146 -7.92241 8.04257 172.615 -3.2745 90.9586 -15.16 -6.41144 0.394407 70.5046 -5.59362 -0.460321 25.8091 1.28385 0.467477 0.324977 7.67614 -89.8883 11.5213 0.698837 0.15105 -0.149489 0.704803 0.120145 -22.6858 0.621132 0.354108 -2.67319 0.62113 0.354098 89.1419 -30.3068 -108.331 37.5873 -7.92166 -4.66773 3.55543 -37.6179 -17.6059 -25.1068 -0.875652 -7.44202 -87.5404 -54.5063 83.1631 -20.0618 10.705 -11.152 -4.72043 9.74772 -0.0057023 2.63396 -0.429616 -20.0374 4.53831 -1.63159 2.43304 -5.70237 -1.9832 -3.12215 
40.1537 101.57 -271.043 -165.641 -85.5275 -168.522 -173.893 -0.94885 89.6592 -19.8556 3.81381 0.45156 73.6148 9.58064 -3.74062 24.1739 -6.69684 11.127 171.883 -1.47818 90.5876 -18.5688 -6.01861 1.074 73.2037 -6.47283 0.183429 26.7394 0.66023 1.29926 0.397406 7.71571 -89.8119 11.4413 0.878587 0.28573 -0.229393 0.890309 0.24677 -22.7661 0.752092 0.536586 -2.75349 0.752091 0.53657 88.525 -30.2294 -109.571 36.6252 -7.48372 -5.91156 5.44505 -37.0568 -14.5677 -25.5811 -0.760553 -7.9384 -87.4332 -54.8024 83.3629 -19.4039 9.89124 -10.0806 -4.25109 9.04354 0.0232761 3.02448 -0.545567 -20.404 4.05166 -1.57211 3.25893 -4.85682 -2.08163 -3.20887 
39.2708 101.135 -270.409 172.526 -85.3416 169.991 -174.595 8.33073 88.4173 -36.3196 4.08047 1.44768 72.9746 7.87677 -3.70433 24.2706 -6.15405 10.0253 171.544 -2.55125 91.1358 -18.2735 -5.07406 1.90769 74.0466 -6.96295 -0.401185 26.5746 0.570228 2.02919 0.381531 7.88007 -89.9523 11.115 0.781546 0.0167397 -0.555701 0.781528 -0.0176796 -23.0928 0.740376 0.250875 -3.08018 0.740378 0.250863 88.9062 -28.7997 -109.428 36.5179 -8.0014 -6.38217 5.8232 -35.5818 -14.6265 -26.4267 -0.472482 -9.07886 -86.6946 -56.4114 84.6463 -18.7329 9.17383 -9.51563 -4.10696 8.03469 -0.604132 3.45788 -0.692114 -21.4526 4.60961 -1.16126 5.22411 -5.15272 -2.02016 -4.0811 
38.6716 101.129 -269.256 170.98 -85.9296 168.19 -174.049 15.4454 88.4875 -42.6598 3.02496 0.449029 74.3251 7.70774 -5.57623 20.4349 -8.4546 9.83963 171.946 -2.47489 91.5514 -18.5719 -5.1731 1.61878 73.2713 -6.13671 -0.32553 28.9543 -0.061333 -0.0971759 0.701417 7.93769 -89.8583 10.9999 1.46201 0.141332 -0.67025 1.46681 0.0768379 -23.211 1.35194 0.574274 -3.19838 1.35194 0.574263 88.5619 -30.1538 -109.54 35.2782 -7.57099 -7.12819 5.80678 -35.3867 -14.3499 -24.8669 -0.267974 -10.3874 -87.2731 -54.5202 83.5418 -20.8304 8.16691 -6.79987 -3.31091 7.74313 -1.33593 3.57667 -0.68895 -20.3877 3.08157 -1.99359 2.21413 -3.53655 -2.33857 -2.90649 
